<?xml version="1.0" encoding="UTF-8"?>
<svg id="_图层_1" data-name="图层 1" xmlns="http://www.w3.org/2000/svg" viewBox="0 0 440 440">
  <defs>
    <style>
      .cls-1 {
        fill: #ed6e10;
      }
    </style>
  </defs>
  <path class="cls-1" d="M438.88,83.5c-.99-1.06-6.27-2.47-7.94-2.67-4.05-.49-10.09-.8-14.3-.98-44.17-1.91-89.28.6-133.36.96-24.09.2-51.68-5.6-72.15,10.98-11.05,8.95-22.01,32.71-28.91,45.82-9.38,17.82-18.59,42.17-29.11,58.35-.58.9-.91,2.17-2.28,1.97-9.25-26.69-15.67-55.54-26.12-81.73-7.81-19.55-14.09-33.96-37.54-35.49-27.5-1.79-46.93,13.62-53.7,39.77-11.99,68.05-20.02,136.64-29.24,205.12-.78,5.82-5.84,29.21-3.71,32.82.69,1.18,2.93,1.55,4.24,1.7,9.14,1.04,27.08.63,36.56.02,15.36-.98,15.61-2.31,18.1-16.71,8.3-48.08,13.97-97.04,23.2-144.93.21-1.09.24-5.47,1.96-4.83,7.81,22.88,13.9,46.6,22.5,69.22,3.8,10,9.38,24.7,18.41,30.84,6.92,4.71,20.01,6.94,27.93,4.43,6.46-2.04,17-18.63,21.11-24.75,14.67-21.85,26.89-45.58,42.09-67.01l-17,146.51c.32,4.45-.22,6.71,4.69,7.18,10.75,1.02,32.6,1.03,43.36.04,6.2-.57,6.93-4.34,7.93-9.9,6.77-37.39,9.92-78.16,15.5-116.12,3.86-26.28,7.69-52.73,11.89-78.97.23-1.43.97-7.95,2.14-8.22,7.31-.12,14.66.26,21.97.07,1.94-.05,9.01-2.33,9.51.35l-31.87,210.45c1.29,4.38,13.19,1.67,16.84,1.05,10.68-1.81,31.72-8.19,39.05-16.14,4.35-4.72,5.12-9.54,6.5-15.57,11.24-49.01,14.97-103.29,23.31-153.3.8-4.82,3.34-23.34,5.11-26.31.61-1.03.75-1.19,1.98-1.42,3.85-.72,10.16.28,14.48.05,8.94-.49,24.38-1.17,32.47-4.04,4.95-1.76,5.31-2.78,6.73-7.7,2.87-9.93,7.66-33.82,8.66-44,.19-1.93.37-5.47-.99-6.91Z"/>
</svg>