<?xml version="1.0" encoding="UTF-8"?>
<svg id="_图层_1" data-name="图层_1" xmlns="http://www.w3.org/2000/svg" version="1.1" viewBox="0 0 440 440">
  <!-- Generator: Adobe Illustrator 29.0.0, SVG Export Plug-In . SVG Version: 2.1.0 Build 186)  -->
  <defs>
    <style>
      .st0 {
        fill: #ed6e10;
      }
    </style>
  </defs>
  <path class="st0" d="M326.91,104.94c21.56.77,43.75-1.8,65.26-.62,9.64.53,17.35,2.91,24.7,9.26,19.7,17.02,14.75,43.91,14.86,67.3.29,63.96-.17,127.93.05,191.89-6.02,30.22-27.55,34.44-54.56,34.26-73.58-.49-147.36-.94-221.04-.6-7.83-.53-16.91-3.39-20.64-10.94-2.71-5.5-2.64-13.89,3.74-16.73,3.54-1.57,4.74-.34,7.95-.33,80.05.22,160.1-.24,240.15,0,9.69-.77,14.85-5.42,15.79-15.19-1.77-68.4,2.28-137.92,0-206.19-.13-4.01-.21-12.23-1.03-15.65-1.23-5.11-6.27-7.94-11.22-8.44-25.77-2.61-55.63,2.69-81.54-.68-5.56-.72-9.72-2.84-10.96-8.7-1.02-4.79-1.04-12.52-1.35-17.71-.85-14.16-.38-21.14-17.16-21.13-28.43.02-56.87.04-85.3.07-10.71,0-22.03-2.98-26.88,8.8-3.32,8.07-1.91,19.69-1.91,28.27-.31,2.57-.94,5.21-2.6,7.19-3.14,3.76-8.75,3.97-13.65,3.88-22.46-.43-44.91-.86-67.37-1.3-5.8-.11-12.35.07-16.32,4.32-3.57,3.82-3.76,9.61-3.73,14.84.17,38.97.34,77.93.5,116.9.02,5.66.01,11.5-2.21,16.7s-7.28,9.63-12.92,9.3c-5.21-.31-9.51-4.57-11.46-9.42s-2-10.21-2.02-15.43c-.18-35.81-.36-71.61-.54-107.42-.09-16.98.7-36.08,13.16-47.61,11.33-10.48,28.38-10.97,43.82-10.87,15.39.11,30.77.21,46.16.32-1.6-14.79,2.92-31.22,15.08-39.78,10.33-7.28,23.85-7.62,36.49-7.69,27.8-.16,55.6-.31,83.4-.47,11-.06,22.32-.07,32.56,3.95,20.81,8.15,20.18,26.78,22.71,45.65Z"/>
  <path class="st0" d="M418.32,84.22h-40.86c-11.95,0-21.68-9.73-21.68-21.68V21.68c0-11.95,9.72-21.68,21.68-21.68h40.86c11.95,0,21.68,9.72,21.68,21.68v40.86c0,11.95-9.72,21.68-21.68,21.68ZM377.46,18.48c-1.76,0-3.19,1.43-3.19,3.19v40.86c0,1.76,1.43,3.19,3.19,3.19h40.86c1.76,0,3.19-1.43,3.19-3.19V21.68c0-1.76-1.43-3.19-3.19-3.19h-40.86Z"/>
  <path class="st0" d="M91.4,441.29h-59.1c-17.29,0-31.35-14.06-31.35-31.35v-59.1c0-17.29,14.06-31.35,31.35-31.35h59.1c17.29,0,31.35,14.06,31.35,31.35v59.1c0,17.29-14.06,31.35-31.35,31.35ZM32.3,346.22c-2.55,0-4.62,2.07-4.62,4.62v59.1c0,2.55,2.07,4.62,4.62,4.62h59.1c2.55,0,4.62-2.07,4.62-4.62v-59.1c0-2.55-2.07-4.62-4.62-4.62h-59.1Z"/>
  <path class="st0" d="M318.05,202.62c-18.1-32-54.1-51.99-90.75-50.49-1.31.05-2.62.13-3.92.24-35.6,2.95-68.46,27.7-82.36,60.39-14.39,33.84-7.03,71.95,15.5,100.39,38.15,48.16,118.36,46.15,153.83-4.02,22.17-31.37,26.92-72.52,7.7-106.51ZM301.2,258.28c-8.78,68.32-100.16,84.05-131.89,23.63-23.02-43.84,7.74-98.01,56.79-101.12,43.99-2.79,80.81,33.11,75.11,77.49Z"/>
</svg>